# This file uses centimeters as units for non-parametric coordinates.

mtllib Enemy2.mtl
g default
v -0.500000 -1.151350 0.500000
v 0.500000 -1.151350 0.500000
v -0.500000 -0.151350 0.500000
v 0.500000 -0.151350 0.500000
v -0.500000 -0.151350 -0.500000
v 0.500000 -0.151350 -0.500000
v -0.500000 -1.151350 -0.500000
v 0.500000 -1.151350 -0.500000
v -0.500000 -2.396268 -0.500000
v 0.500000 -2.396268 -0.500000
v 0.500000 -2.396268 0.500000
v -0.500000 -2.396268 0.500000
v -0.343695 -2.396268 -0.343695
v 0.343695 -2.396268 -0.343695
v 0.343695 -2.396268 0.343695
v -0.343695 -2.396268 0.343695
v -0.209070 -2.719350 -0.209070
v 0.209070 -2.719350 -0.209070
v 0.209070 -3.576621 -0.209070
v -0.209070 -3.576621 -0.209070
v 0.209070 -2.719350 0.209070
v 0.209070 -3.576621 0.209070
v -0.209070 -2.719350 0.209070
v -0.209070 -3.576621 0.209070
v -0.105508 -3.168381 -0.111606
v 0.117704 -3.168381 -0.111606
v 0.117704 -3.395138 -0.111606
v -0.105508 -3.395138 -0.111606
v -0.105508 -3.168381 0.111606
v 0.117704 -3.168381 0.111606
v -0.105508 -3.395138 0.111606
v 0.117704 -3.395138 0.111606
v 1.305251 -3.168381 -0.111606
v 1.305251 -3.168381 0.111606
v 1.305251 -3.691486 0.111606
v 1.305251 -3.691486 -0.111606
v -1.293055 -3.168381 -0.111606
v -1.293055 -3.168381 0.111606
v -1.293055 -3.691486 -0.111606
v -1.293055 -3.691486 0.111606
v -0.105508 -3.168381 1.293844
v 0.117704 -3.168381 1.293844
v -0.105508 -3.693330 1.293844
v 0.117704 -3.693330 1.293844
v -0.105508 -3.168381 -1.293844
v 0.117704 -3.168381 -1.293844
v 0.117704 -3.693330 -1.293844
v -0.105508 -3.693330 -1.293844
v -0.235882 -0.415468 -0.500000
v 0.235882 -0.415468 -0.500000
v 0.235882 -0.887233 -0.500000
v -0.235882 -0.887233 -0.500000
v -0.235882 -0.415468 -0.320419
v 0.235882 -0.415468 -0.320419
v 0.235882 -0.887233 -0.320419
v -0.235882 -0.887233 -0.320419
v -0.099399 -0.551951 -0.320419
v 0.099399 -0.551951 -0.320419
v 0.099399 -0.750749 -0.320419
v -0.099399 -0.750749 -0.320419
v -0.099399 -0.551951 -1.119585
v 0.099399 -0.551951 -1.119585
v 0.099399 -0.750749 -1.119585
v -0.099399 -0.750749 -1.119585
vt 0.001397 0.226119
vt 0.181430 0.226119
vt 0.181430 0.406152
vt 0.001397 0.406152
vt 0.001397 0.001992
vt 0.181430 0.001992
vt 0.002075 0.226119
vt 0.182109 0.226119
vt 0.182109 0.406152
vt 0.002075 0.406152
vt 0.002075 0.001992
vt 0.182109 0.001992
vt 0.315182 0.439678
vt 0.274996 0.439678
vt 0.274996 0.345501
vt 0.315182 0.345501
vt 0.314428 0.438722
vt 0.274242 0.438722
vt 0.274242 0.344546
vt 0.314428 0.344546
vt 0.846149 0.936512
vt 0.722396 0.936512
vt 0.746633 0.878346
vt 0.821912 0.878346
vt 0.764179 0.797505
vt 0.804365 0.797505
vt 0.847404 0.938515
vt 0.723650 0.938515
vt 0.747887 0.880349
vt 0.823166 0.880349
vt 0.765434 0.799508
vt 0.805620 0.799508
vt 0.218957 0.674104
vt 0.143678 0.673681
vt 0.161409 0.641107
vt 0.201594 0.641333
vt 0.218958 0.673827
vt 0.143680 0.673404
vt 0.161410 0.640830
vt 0.201595 0.641056
vt 0.507373 0.522828
vt 0.466549 0.522828
vt 0.412864 0.309985
vt 0.507373 0.309985
vt 0.468150 0.309985
vt 0.508974 0.309985
vt 0.508974 0.522828
vt 0.414465 0.522828
vt 0.501587 0.524325
vt 0.460763 0.524325
vt 0.407079 0.311483
vt 0.501587 0.311483
vt 0.466041 0.308035
vt 0.506864 0.308035
vt 0.506864 0.520877
vt 0.412356 0.520877
vt 0.987301 0.585401
vt 0.902367 0.585401
vt 0.902367 0.419555
vt 0.987301 0.419555
vt 0.902856 0.419555
vt 0.987789 0.419555
vt 0.987789 0.585401
vt 0.902856 0.585401
vt 0.982156 0.339604
vt 0.946366 0.339604
vt 0.946366 0.062212
vt 0.982156 0.062212
vt 0.945243 0.062212
vt 0.981034 0.062212
vt 0.981034 0.339604
vt 0.945243 0.339604
vt 0.395038 0.199521
vt 0.395038 0.019488
vt 0.575071 0.019488
vt 0.575071 0.199521
vt 0.337556 0.627757
vt 0.517590 0.627757
vt 0.489450 0.655897
vt 0.365696 0.655897
vt 0.517590 0.807790
vt 0.489450 0.779650
vt 0.337556 0.807790
vt 0.365696 0.779650
vt 0.405944 0.524651
vt 0.365758 0.524651
vt 0.365758 0.310853
vt 0.405944 0.310853
vt 0.403960 0.524338
vt 0.363774 0.524338
vt 0.363774 0.310539
vt 0.403960 0.310539
vt 0.365707 0.309985
vt 0.405893 0.309985
vt 0.405893 0.523783
vt 0.365707 0.523783
vt 0.364644 0.309985
vt 0.404830 0.309985
vt 0.404830 0.523783
vt 0.364644 0.523783
vt 0.405264 0.522828
vt 0.365079 0.522828
vt 0.365079 0.309985
vt 0.405264 0.309985
vt 0.366679 0.309985
vt 0.406865 0.309985
vt 0.406865 0.522828
vt 0.366679 0.522828
vt 0.368280 0.309985
vt 0.408466 0.309985
vt 0.408466 0.522828
vt 0.368280 0.522828
vt 0.404707 0.520877
vt 0.364521 0.520877
vt 0.364521 0.308035
vt 0.404707 0.308035
vt 0.901098 0.419556
vt 0.986031 0.419556
vt 0.986031 0.585401
vt 0.901098 0.585401
vt 0.986520 0.585401
vt 0.901586 0.585401
vt 0.901586 0.419555
vt 0.986520 0.419555
vt 0.946593 0.062212
vt 0.982383 0.062212
vt 0.982383 0.339604
vt 0.946593 0.339604
vt 0.981930 0.339604
vt 0.946139 0.339604
vt 0.946139 0.062212
vt 0.981930 0.062212
vt 0.145398 0.618841
vt 0.220677 0.618841
vt 0.220677 0.694121
vt 0.145398 0.694121
vt 0.001948 0.226119
vt 0.181981 0.226119
vt 0.181981 0.406152
vt 0.001948 0.406152
vt 0.001948 0.001992
vt 0.181981 0.001992
vt 0.942901 0.050022
vt 0.942901 0.014232
vt 0.978691 0.014232
vt 0.978691 0.050022
vt 0.606073 0.272135
vt 0.859581 0.272135
vt 0.859581 0.587731
vt 0.606073 0.587731
vt 0.673029 0.205179
vt 0.792625 0.205179
vt 0.606073 0.018627
vt 0.673029 0.085583
vt 0.859581 0.018627
vt 0.792625 0.085583
vt 0.274556 0.345501
vt 0.314742 0.345501
vt 0.314742 0.440010
vt 0.274556 0.440010
vt 0.315286 0.440010
vt 0.275101 0.440010
vt 0.275101 0.345501
vt 0.315286 0.345501
vt 0.724205 0.797505
vt 0.847959 0.797505
vt 0.823722 0.855671
vt 0.748442 0.855671
vt 0.807273 0.936512
vt 0.767087 0.936512
vt 0.846776 0.936512
vt 0.723023 0.936512
vt 0.747260 0.878346
vt 0.822539 0.878346
vt 0.765904 0.797505
vt 0.806090 0.797505
vt 0.143865 0.640564
vt 0.219142 0.640987
vt 0.200315 0.673555
vt 0.160129 0.673329
vt 0.218961 0.673383
vt 0.143682 0.672960
vt 0.160315 0.640380
vt 0.200500 0.640605
vt 0.504136 0.524338
vt 0.463312 0.524338
vt 0.409959 0.310539
vt 0.504136 0.310539
vt 0.452716 0.523783
vt 0.411892 0.523783
vt 0.411892 0.309985
vt 0.506068 0.309985
vt 0.410829 0.309985
vt 0.451653 0.309985
vt 0.505005 0.523783
vt 0.410829 0.523783
vt 0.464616 0.309985
vt 0.505440 0.309985
vt 0.505440 0.523783
vt 0.411264 0.523783
vt 0.900927 0.448232
vt 0.985861 0.448232
vt 0.961289 0.472803
vt 0.925499 0.472803
vt 0.985861 0.533165
vt 0.961289 0.508593
vt 0.900927 0.533165
vt 0.925499 0.508593
vn 0.000000 0.000000 1.000000
vn 0.000000 0.000000 1.000000
vn 0.000000 0.000000 1.000000
vn 0.000000 0.000000 1.000000
vn 0.000000 1.000000 0.000000
vn 0.000000 1.000000 0.000000
vn 0.000000 1.000000 0.000000
vn 0.000000 1.000000 0.000000
vn 0.000000 0.000000 -1.000000
vn 0.000000 0.000000 -1.000000
vn 0.000000 0.000000 -1.000000
vn 0.000000 0.000000 -1.000000
vn 1.000000 0.000000 0.000000
vn 1.000000 0.000000 0.000000
vn 1.000000 0.000000 0.000000
vn 1.000000 0.000000 0.000000
vn -1.000000 0.000000 0.000000
vn -1.000000 0.000000 0.000000
vn -1.000000 0.000000 0.000000
vn -1.000000 0.000000 0.000000
vn 0.000000 0.000000 -1.000000
vn 0.000000 0.000000 -1.000000
vn 0.000000 0.000000 -1.000000
vn 0.000000 0.000000 -1.000000
vn 1.000000 0.000000 0.000000
vn 1.000000 0.000000 0.000000
vn 1.000000 0.000000 0.000000
vn 1.000000 0.000000 0.000000
vn 0.000000 0.000000 1.000000
vn 0.000000 0.000000 1.000000
vn 0.000000 0.000000 1.000000
vn 0.000000 0.000000 1.000000
vn -1.000000 0.000000 0.000000
vn -1.000000 0.000000 0.000000
vn -1.000000 0.000000 0.000000
vn -1.000000 0.000000 0.000000
vn 0.000000 -1.000000 -0.000000
vn 0.000000 -1.000000 -0.000000
vn 0.000000 -1.000000 -0.000000
vn 0.000000 -1.000000 -0.000000
vn 0.000000 -1.000000 0.000000
vn 0.000000 -1.000000 0.000000
vn 0.000000 -1.000000 0.000000
vn 0.000000 -1.000000 0.000000
vn 0.000000 -1.000000 -0.000000
vn 0.000000 -1.000000 -0.000000
vn 0.000000 -1.000000 -0.000000
vn 0.000000 -1.000000 -0.000000
vn 0.000000 -1.000000 0.000000
vn 0.000000 -1.000000 0.000000
vn 0.000000 -1.000000 0.000000
vn 0.000000 -1.000000 0.000000
vn 0.000000 0.000000 -1.000000
vn 0.000000 0.000000 -1.000000
vn 0.000000 0.000000 -1.000000
vn 0.000000 0.000000 -1.000000
vn 1.000000 0.000000 0.000000
vn 1.000000 0.000000 0.000000
vn 1.000000 0.000000 0.000000
vn 1.000000 0.000000 0.000000
vn 0.000000 0.000000 1.000000
vn 0.000000 0.000000 1.000000
vn 0.000000 0.000000 1.000000
vn 0.000000 0.000000 1.000000
vn -1.000000 0.000000 0.000000
vn -1.000000 0.000000 0.000000
vn -1.000000 0.000000 0.000000
vn -1.000000 0.000000 0.000000
vn 0.000000 -0.384635 -0.923069
vn 0.000000 -0.384635 -0.923069
vn 0.000000 -0.384635 -0.923069
vn 0.000000 -0.384634 -0.923069
vn 0.923069 -0.384635 0.000000
vn 0.923069 -0.384635 0.000000
vn 0.923069 -0.384635 0.000000
vn 0.923069 -0.384635 0.000000
vn 0.000000 -0.384635 0.923069
vn 0.000000 -0.384635 0.923069
vn 0.000000 -0.384635 0.923069
vn 0.000000 -0.384635 0.923069
vn -0.923069 -0.384634 0.000000
vn -0.923069 -0.384634 0.000000
vn -0.923069 -0.384634 0.000000
vn -0.923069 -0.384634 0.000000
vn 0.000000 -0.212115 -0.977245
vn 0.000000 -0.212115 -0.977245
vn 0.000000 -0.212115 -0.977245
vn 0.000000 -0.212115 -0.977245
vn 0.000000 0.473130 -0.880993
vn 0.000000 0.473130 -0.880993
vn 0.000000 0.473130 -0.880993
vn 0.000000 0.473130 -0.880993
vn -0.000000 -0.212115 0.977245
vn -0.000000 -0.212115 0.977245
vn -0.000000 -0.212115 0.977245
vn -0.000000 -0.212115 0.977245
vn 0.000000 0.473130 0.880993
vn 0.000000 0.473130 0.880993
vn 0.000000 0.473130 0.880993
vn 0.000000 0.473130 0.880992
vn 0.979921 -0.199388 0.000000
vn 0.979921 -0.199388 0.000000
vn 0.979921 -0.199388 0.000000
vn 0.979921 -0.199388 0.000000
vn 0.893194 0.449671 0.000000
vn 0.893194 0.449671 0.000000
vn 0.893194 0.449671 0.000000
vn 0.893194 0.449671 0.000000
vn -0.974420 -0.224734 0.000000
vn -0.974420 -0.224734 0.000000
vn -0.974420 -0.224734 0.000000
vn -0.974420 -0.224734 0.000000
vn -0.868537 0.495624 0.000000
vn -0.868537 0.495624 0.000000
vn -0.868537 0.495624 0.000000
vn -0.868537 0.495624 0.000000
vn 0.000000 1.000000 0.000000
vn 0.000000 1.000000 0.000000
vn 0.000000 1.000000 0.000000
vn 0.000000 1.000000 0.000000
vn 0.000000 0.000000 1.000000
vn 0.000000 0.000000 1.000000
vn 0.000000 0.000000 1.000000
vn 0.000000 0.000000 1.000000
vn -0.242121 -0.970246 0.000000
vn -0.242121 -0.970246 0.000000
vn -0.242121 -0.970246 0.000000
vn -0.242121 -0.970246 0.000000
vn 0.000000 0.000000 -1.000000
vn 0.000000 0.000000 -1.000000
vn 0.000000 0.000000 -1.000000
vn 0.000000 0.000000 -1.000000
vn 0.000000 1.000000 0.000000
vn 0.000000 1.000000 0.000000
vn 0.000000 1.000000 0.000000
vn 0.000000 1.000000 0.000000
vn 0.000000 0.000000 -1.000000
vn 0.000000 0.000000 -1.000000
vn 0.000000 0.000000 -1.000000
vn 0.000000 0.000000 -1.000000
vn 0.242121 -0.970246 0.000000
vn 0.242121 -0.970246 0.000000
vn 0.242121 -0.970246 0.000000
vn 0.242121 -0.970246 0.000000
vn -0.000000 0.000000 1.000000
vn -0.000000 0.000000 1.000000
vn -0.000000 0.000000 1.000000
vn -0.000000 0.000000 1.000000
vn 0.000000 1.000000 0.000000
vn 0.000000 1.000000 0.000000
vn 0.000000 1.000000 0.000000
vn 0.000000 1.000000 0.000000
vn -1.000000 0.000000 0.000000
vn -1.000000 0.000000 0.000000
vn -1.000000 0.000000 0.000000
vn -1.000000 0.000000 0.000000
vn 0.000000 -0.969632 -0.244567
vn 0.000000 -0.969632 -0.244567
vn 0.000000 -0.969632 -0.244567
vn 0.000000 -0.969632 -0.244567
vn 1.000000 0.000000 0.000000
vn 1.000000 0.000000 0.000000
vn 1.000000 0.000000 0.000000
vn 1.000000 0.000000 0.000000
vn 0.000000 1.000000 0.000000
vn 0.000000 1.000000 0.000000
vn 0.000000 1.000000 0.000000
vn 0.000000 1.000000 0.000000
vn 1.000000 0.000000 0.000000
vn 1.000000 0.000000 0.000000
vn 1.000000 0.000000 0.000000
vn 1.000000 0.000000 0.000000
vn 0.000000 -0.969632 0.244567
vn 0.000000 -0.969632 0.244567
vn 0.000000 -0.969632 0.244567
vn 0.000000 -0.969632 0.244567
vn -1.000000 0.000000 0.000000
vn -1.000000 0.000000 0.000000
vn -1.000000 0.000000 0.000000
vn -1.000000 0.000000 0.000000
vn 0.000000 0.000000 -1.000000
vn 0.000000 0.000000 -1.000000
vn 0.000000 0.000000 -1.000000
vn 0.000000 0.000000 -1.000000
vn 0.000000 0.000000 -1.000000
vn 0.000000 0.000000 -1.000000
vn 0.000000 0.000000 -1.000000
vn 0.000000 0.000000 -1.000000
vn 0.000000 0.000000 -1.000000
vn 0.000000 0.000000 -1.000000
vn 0.000000 0.000000 -1.000000
vn 0.000000 0.000000 -1.000000
vn 0.000000 0.000000 -1.000000
vn 0.000000 0.000000 -1.000000
vn 0.000000 0.000000 -1.000000
vn 0.000000 0.000000 -1.000000
vn 0.000000 -1.000000 0.000000
vn 0.000000 -1.000000 0.000000
vn 0.000000 -1.000000 0.000000
vn 0.000000 -1.000000 0.000000
vn -1.000000 0.000000 0.000000
vn -1.000000 0.000000 0.000000
vn -1.000000 0.000000 0.000000
vn -1.000000 0.000000 0.000000
vn 0.000000 1.000000 0.000000
vn 0.000000 1.000000 0.000000
vn 0.000000 1.000000 0.000000
vn 0.000000 1.000000 0.000000
vn 1.000000 0.000000 0.000000
vn 1.000000 0.000000 0.000000
vn 1.000000 0.000000 0.000000
vn 1.000000 0.000000 0.000000
vn 0.000000 0.000000 -1.000000
vn 0.000000 0.000000 -1.000000
vn 0.000000 0.000000 -1.000000
vn 0.000000 0.000000 -1.000000
vn 0.000000 0.000000 -1.000000
vn 0.000000 0.000000 -1.000000
vn 0.000000 0.000000 -1.000000
vn 0.000000 0.000000 -1.000000
vn 0.000000 0.000000 -1.000000
vn 0.000000 0.000000 -1.000000
vn 0.000000 0.000000 -1.000000
vn 0.000000 0.000000 -1.000000
vn -0.000000 0.000000 -1.000000
vn -0.000000 0.000000 -1.000000
vn -0.000000 0.000000 -1.000000
vn -0.000000 0.000000 -1.000000
vn 0.000000 1.000000 0.000000
vn 0.000000 1.000000 0.000000
vn 0.000000 1.000000 0.000000
vn 0.000000 1.000000 0.000000
vn 1.000000 0.000000 0.000000
vn 1.000000 0.000000 0.000000
vn 1.000000 0.000000 0.000000
vn 1.000000 0.000000 0.000000
vn 0.000000 -1.000000 0.000000
vn 0.000000 -1.000000 0.000000
vn 0.000000 -1.000000 0.000000
vn 0.000000 -1.000000 0.000000
vn -1.000000 0.000000 0.000000
vn -1.000000 0.000000 0.000000
vn -1.000000 0.000000 0.000000
vn -1.000000 0.000000 0.000000
vn 0.000000 -1.000000 0.000000
vn 0.000000 -1.000000 0.000000
vn 0.000000 -1.000000 0.000000
vn 0.000000 -1.000000 0.000000
s off
g pCube3
usemtl lambert5SG
f 1/137/1 2/138/2 4/139/3 3/140/4
f 3/73/5 4/74/6 6/75/7 5/76/8
f 61/143/9 62/144/10 63/145/11 64/146/12
f 2/1/13 8/2/14 6/3/15 4/4/16
f 7/7/17 1/8/18 3/9/19 5/10/20
f 7/147/21 8/148/22 10/149/23 9/150/24
f 8/2/25 2/1/26 11/5/27 10/6/28
f 2/138/29 1/137/30 12/141/31 11/142/32
f 1/8/33 7/7/34 9/11/35 12/12/36
f 9/77/37 10/78/38 14/79/39 13/80/40
f 10/78/41 11/81/42 15/82/43 14/79/44
f 11/81/45 12/83/46 16/84/47 15/82/48
f 12/83/49 9/77/50 13/80/51 16/84/52
f 45/157/53 46/158/54 47/159/55 48/160/56
f 33/13/57 34/14/58 35/15/59 36/16/60
f 42/161/61 41/162/62 43/163/63 44/164/64
f 38/17/65 37/18/66 39/19/67 40/20/68
f 13/165/69 14/166/70 18/167/71 17/168/72
f 14/21/73 15/22/74 21/23/75 18/24/76
f 15/171/77 16/172/78 23/173/79 21/174/80
f 16/27/81 13/28/82 17/29/83 23/30/84
f 17/168/85 18/167/86 26/169/87 25/170/88
f 19/177/89 20/178/90 28/179/91 27/180/92
f 21/174/93 23/173/94 29/175/95 30/176/96
f 24/181/97 22/182/98 32/183/99 31/184/100
f 18/24/101 21/23/102 30/25/103 26/26/104
f 22/33/105 19/34/106 27/35/107 32/36/108
f 23/30/109 17/29/110 25/31/111 29/32/112
f 20/37/113 24/38/114 31/39/115 28/40/116
f 26/85/117 30/86/118 34/87/119 33/88/120
f 30/185/121 32/186/122 35/187/123 34/188/124
f 32/89/125 27/90/126 36/91/127 35/92/128
f 27/189/129 26/190/130 33/191/131 36/192/132
f 29/93/133 25/94/134 37/95/135 38/96/136
f 25/193/137 28/194/138 39/195/139 37/196/140
f 28/97/141 31/98/142 40/99/143 39/100/144
f 31/197/145 29/198/146 38/199/147 40/200/148
f 30/101/149 29/102/150 41/103/151 42/104/152
f 29/41/153 31/42/154 43/43/155 41/44/156
f 31/105/157 32/106/158 44/107/159 43/108/160
f 32/45/161 30/46/162 42/47/163 44/48/164
f 25/109/165 26/110/166 46/111/167 45/112/168
f 26/49/169 27/50/170 47/51/171 46/52/172
f 27/113/173 28/114/174 48/115/175 47/116/176
f 28/53/177 25/54/178 45/55/179 48/56/180
f 5/153/181 6/155/182 50/156/183 49/154/184
f 6/155/185 8/148/186 51/152/187 50/156/188
f 8/148/189 7/147/190 52/151/191 51/152/192
f 7/147/193 5/153/194 49/154/195 52/151/196
f 49/117/197 50/118/198 54/119/199 53/120/200
f 50/57/201 51/58/202 55/59/203 54/60/204
f 51/121/205 52/122/206 56/123/207 55/124/208
f 52/61/209 49/62/210 53/63/211 56/64/212
f 53/201/213 54/202/214 58/203/215 57/204/216
f 54/202/217 55/205/218 59/206/219 58/203/220
f 55/205/221 56/207/222 60/208/223 59/206/224
f 56/207/225 53/201/226 57/204/227 60/208/228
f 57/125/229 58/126/230 62/127/231 61/128/232
f 58/65/233 59/66/234 63/67/235 62/68/236
f 59/129/237 60/130/238 64/131/239 63/132/240
f 60/69/241 57/70/242 61/71/243 64/72/244
f 20/133/245 19/134/246 22/135/247 24/136/248
